<svg width="18" height="18" viewBox="0 0 18 18" fill="none" xmlns="http://www.w3.org/2000/svg">
<path d="M9.0001 0.872253C7.02133 0.872335 5.10716 1.57651 3.60008 2.85879C2.09299 4.14107 1.09135 5.91777 0.774382 7.87099C0.457409 9.82421 0.845786 11.8265 1.87002 13.5195C2.89425 15.2126 4.48751 16.486 6.3647 17.1118C6.78137 17.1848 6.93762 16.9348 6.93762 16.716C6.93762 16.5181 6.9272 15.8618 6.9272 15.1639C4.83344 15.5493 4.29177 14.6535 4.1251 14.1848C3.94017 13.7289 3.647 13.3249 3.27094 13.0077C2.97927 12.8514 2.5626 12.466 3.26051 12.4556C3.527 12.4845 3.78259 12.5773 4.00563 12.7259C4.22867 12.8746 4.41257 13.0749 4.54177 13.3097C4.65575 13.5145 4.809 13.6947 4.99276 13.8402C5.17652 13.9856 5.38717 14.0933 5.61263 14.1572C5.8381 14.221 6.07395 14.2398 6.30667 14.2123C6.53939 14.1849 6.76441 14.1118 6.96884 13.9972C7.00491 13.5736 7.19372 13.1775 7.5001 12.8827C5.64594 12.6744 3.70844 11.9556 3.70844 8.76811C3.69673 7.9399 4.00234 7.13859 4.5626 6.52853C4.30784 5.80871 4.33765 5.01877 4.64594 4.3202C4.64594 4.3202 5.34383 4.10144 6.9376 5.17436C8.30118 4.79934 9.7407 4.79934 11.1043 5.17436C12.698 4.09103 13.3959 4.3202 13.3959 4.3202C13.7043 5.01876 13.7341 5.80872 13.4793 6.52853C14.0412 7.13755 14.3471 7.93956 14.3334 8.76811C14.3334 11.966 12.3855 12.6744 10.5314 12.8827C10.7302 13.0843 10.8834 13.3263 10.9805 13.5923C11.0775 13.8583 11.1162 14.1421 11.0939 14.4244C11.0939 15.539 11.0834 16.4348 11.0834 16.716C11.0834 16.9348 11.2397 17.1952 11.6563 17.1119C13.5302 16.4809 15.1189 15.2046 16.1388 13.5106C17.1587 11.8167 17.5433 9.81544 17.2242 7.86412C16.905 5.91279 15.9027 4.1384 14.3963 2.85768C12.8899 1.57696 10.9774 0.873283 9.0001 0.872253Z" fill="#17F290" fill-opacity="0.95"/>
</svg>
